<?xml version="1.0" encoding="UTF-8" standalone="no"?>
<!DOCTYPE svg PUBLIC "-//W3C//DTD SVG 1.1//EN" "http://www.w3.org/Graphics/SVG/1.1/DTD/svg11.dtd">
<svg width="100%" height="100%" viewBox="0 0 800 800" version="1.1" xmlns="http://www.w3.org/2000/svg" xmlns:xlink="http://www.w3.org/1999/xlink" xml:space="preserve" xmlns:serif="http://www.serif.com/" style="fill-rule:evenodd;clip-rule:evenodd;stroke-linejoin:round;stroke-miterlimit:2;">
    <g transform="matrix(1,0,0,1,-124.429,-35.3505)">
        <path d="M210.287,512.713L210.287,301.683L268.59,301.683L268.59,361.439L260.542,344.184C266.761,329.184 276.787,317.854 290.619,310.197C304.451,302.539 321.358,298.71 341.34,298.71L341.34,355.15C338.676,354.786 336.273,354.512 334.132,354.328C331.995,354.145 329.831,354.053 327.641,354.053C310.674,354.053 297.073,358.86 286.837,368.475C276.601,378.09 271.483,392.975 271.483,413.128L271.483,512.713L210.287,512.713Z" style="fill:rgb(14,17,17);fill-rule:nonzero;"/>
        <path d="M363.669,591.795C354.157,591.795 345.063,590.839 336.387,588.926C327.708,587.018 320.363,584.127 314.352,580.253L330.797,535.944C337.863,540.921 346.505,543.409 356.725,543.409C364.481,543.409 370.596,540.855 375.07,535.747C379.549,530.644 381.788,522.908 381.788,512.541L381.788,301.683L442.984,301.683L442.984,512.143C442.984,536.55 436.087,555.928 422.291,570.274C408.5,584.621 388.96,591.795 363.669,591.795Z" style="fill:rgb(14,17,17);fill-rule:nonzero;"/>
        <path d="M547.859,512.713L471.67,301.683L529.581,301.683L592.696,483.194L565.07,483.194L630.937,301.683L682.823,301.683L746.649,483.194L719.489,483.194L784.571,301.683L838.572,301.683L762.144,512.713L703.062,512.713L646.825,356.878L664.667,356.878L606.94,512.713L547.859,512.713Z" style="fill:rgb(14,17,17);fill-rule:nonzero;"/>
    </g>
</svg>
